<svg width="36" height="37" viewBox="0 0 36 37" fill="none" xmlns="http://www.w3.org/2000/svg">
<path d="M27.8445 9.02323L7.30274 17.031C7.03536 17.1352 6.8591 17.3931 6.85938 17.6803C6.85965 17.9673 7.03591 18.2249 7.30356 18.3288L11.3088 19.8849C11.7674 21.0311 13.8453 26.2278 13.8782 26.3061C14.0713 26.7631 14.6651 26.8754 15.0113 26.5281L18.1136 23.4259L23.8344 27.9735C24.2347 28.2918 24.8386 28.0834 24.9485 27.5753L28.7783 9.81884C28.8923 9.2868 28.3698 8.81895 27.8445 9.02323ZM20.5096 13.3772L11.7786 18.5733L9.47579 17.6787L20.5096 13.3772ZM22.5676 13.7732L15.4425 20.2722C15.35 20.3568 15.2738 20.4768 15.2393 20.6063C15.239 20.6068 15.2387 20.6076 15.2387 20.6082L14.3849 23.8257L12.7105 19.6393L22.5676 13.7732ZM16.3118 21.994L17.0163 22.5538L15.8554 23.7147L16.3118 21.994ZM23.8232 26.1856C22.4939 25.1289 18.2172 21.7299 16.9847 20.7504L26.9575 11.6541L23.8232 26.1856Z" fill="white"/>
</svg>
