<svg width="36" height="37" viewBox="0 0 36 37" fill="none" xmlns="http://www.w3.org/2000/svg">
<path d="M26.0569 20.2137C25.8132 19.8865 25.866 19.6719 26.0526 19.3439C26.2854 18.9351 26.7489 18.3108 27.2396 17.6501C28.8134 15.5306 29.8291 14.0632 29.6188 13.0165C29.5533 12.6909 29.2674 12.4573 28.9361 12.4573C28.9342 12.4573 25.5094 12.4581 24.2454 12.4643C23.9386 12.4657 23.6687 12.6615 23.5814 12.9559C23.4294 13.4689 22.8356 14.8561 22.1159 16.1261C21.1826 17.7728 20.5711 18.2888 20.3557 18.3794L20.3217 18.3687C20.2513 18.2817 20.1289 18.0467 20.0785 17.4382C20.0261 16.8017 20.0726 16.032 20.1177 15.2875C20.1705 14.4171 20.2162 13.6652 20.1071 13.1291C20.032 12.933 20.0892 12.2886 19.4891 12.1534C18.6628 11.9671 17.5413 11.9048 16.7416 11.8964C14.8476 11.8776 14.2903 12.151 14.0172 12.3923C13.8309 12.5568 13.7463 12.8084 13.7958 13.0521C13.845 13.2959 14.0205 13.495 14.2563 13.5741C14.6809 13.7169 14.8324 13.8981 14.9537 14.7535C15.0307 15.2994 15.0709 16.2161 14.9874 17.034C14.8699 18.1879 14.59 18.4188 14.5626 18.4376C14.503 18.418 14.0379 18.2161 13.1979 16.5118C12.4752 15.0457 11.8686 13.2842 11.5852 12.5536C11.4813 12.2856 11.2234 12.1091 10.9359 12.1091H6.77264C6.54307 12.1091 6.32818 12.2223 6.19817 12.4116C6.06842 12.6009 6.04013 12.8422 6.12309 13.0565C7.42735 16.4337 8.92392 19.8928 11.023 22.3134C13.1949 24.8182 15.8758 26.0357 19.2187 26.0357C19.6034 26.0357 19.9151 25.724 19.9151 25.3394C19.9151 24.1382 20.084 23.7816 20.3476 23.2811C20.4936 23.0048 20.6364 22.8862 20.7142 22.8688C20.7847 22.8525 20.909 22.9044 21.0472 23.0075C21.4432 23.3024 21.7576 23.6905 22.0903 24.1012C22.5698 24.6931 23.0657 25.3054 23.8532 25.7069C24.2824 25.9248 25.05 26.0352 25.4906 26.0287H28.9674C29.3631 26.0287 29.6795 25.7061 29.6632 25.3106C29.578 23.2523 26.6934 21.0137 26.0569 20.2137ZM25.4857 24.6431C25.4819 24.6431 25.4784 24.6431 25.4746 24.6431C25.1841 24.6501 24.6564 24.553 24.4845 24.4655C23.9617 24.1989 23.5958 23.7474 23.1723 23.2248C22.8002 22.7652 22.4153 22.29 21.8792 21.8907C20.8916 21.1543 19.7734 21.3866 19.1159 22.6313C18.7476 23.3298 18.6048 23.7901 18.5455 24.6246C15.9144 24.4766 13.8448 23.4419 12.0751 21.4008C10.306 19.3605 8.96363 16.4481 7.79293 13.5018H10.4542C11.4949 16.3048 12.8449 19.8316 14.5604 19.8316C14.982 19.8316 15.3601 19.6529 15.6541 19.3145C16.7832 18.0151 16.3374 14.5933 16.3325 14.5585C16.2729 14.1372 16.1875 13.6943 15.9805 13.2997C16.8648 13.2648 18.0505 13.3222 18.746 13.4256C18.8132 13.7882 18.7697 14.5074 18.7275 15.2032C18.625 16.8972 18.5189 18.6459 19.4276 19.4437C19.4548 19.4676 19.9594 19.7739 20.2709 19.7851C20.8372 19.8076 21.7631 19.5316 23.2607 16.9296C23.8714 15.8685 24.4388 14.6466 24.7442 13.8483C25.7504 13.8464 27.1602 13.8431 28.0858 13.8439C27.6775 14.7454 26.7748 15.9403 26.1214 16.8199C25.5826 17.5457 25.1172 18.1724 24.8424 18.6549C24.3313 19.5525 24.4173 20.3519 24.9493 21.0575C24.9521 21.0616 24.955 21.0654 24.958 21.0692C25.6187 21.9086 27.3337 23.2102 28.0483 24.6431H25.4857Z" fill="white"/>
</svg>
