<svg width="36" height="37" viewBox="0 0 36 37" fill="none" xmlns="http://www.w3.org/2000/svg">
<path d="M17.9138 6.53839C11.3865 6.53839 6.07617 11.8487 6.07617 18.376C6.07617 20.5306 6.6569 22.6275 7.75852 24.4619L6.23257 29.1806C6.15206 29.4292 6.21761 29.7023 6.40258 29.8873C6.58754 30.0722 6.86063 30.1378 7.10924 30.0573L11.828 28.5313C13.6624 29.6329 15.7595 30.2137 17.9138 30.2137C24.4411 30.2137 29.7514 24.9033 29.7514 18.376C29.7514 11.8487 24.4411 6.53839 17.9138 6.53839ZM17.9138 28.821C15.9143 28.821 13.9716 28.2544 12.2956 27.183C12.1201 27.0707 11.9036 27.0432 11.7061 27.1071L7.97667 28.3132L9.18274 24.5834C9.24666 24.3857 9.21891 24.1695 9.10685 23.9943C8.03542 22.3182 7.46883 20.3755 7.46883 18.376C7.46883 12.6166 12.1544 7.93105 17.9138 7.93105C23.6732 7.93105 28.3588 12.6166 28.3588 18.376C28.3588 24.1354 23.6732 28.821 17.9138 28.821Z" fill="white"/>
<path d="M22.9302 19.0157C22.6508 18.7364 22.2795 18.5827 21.8846 18.5827C21.8843 18.5827 21.884 18.5827 21.8838 18.5827C21.4888 18.5827 21.1178 18.7369 20.8398 19.0155L20.286 19.5687C19.9471 19.9077 19.3982 19.9077 19.0593 19.5687L16.8473 17.3562C16.5106 17.0198 16.5057 16.4714 16.8476 16.1298L17.4011 15.5763C17.9759 15.0001 17.9759 14.0623 17.4003 13.4856L15.1889 11.2748C14.612 10.6965 13.6758 10.6959 13.0978 11.2742L12.545 11.8269C11.7535 12.6182 11.4891 14.2894 11.8558 16.1877C12.2524 18.2422 13.2827 20.1854 14.7564 21.6594C16.2302 23.1331 18.1734 24.1632 20.2278 24.56C21.609 24.8266 23.6034 24.857 24.5889 23.8708L25.141 23.3186C25.7196 22.7417 25.7201 21.806 25.1416 21.2274L22.9302 19.0157ZM23.6039 22.8861C23.2261 23.2639 22.0361 23.4905 20.4919 23.1926C19.4586 22.993 17.4672 22.4006 15.7411 20.6744C14.0152 18.9486 13.4228 16.9572 13.2232 15.9239C12.925 14.3797 13.1516 13.1894 13.5294 12.8119C13.5294 12.8119 13.5297 12.8119 13.5297 12.8116L14.0827 12.2589C14.1161 12.2254 14.1695 12.2246 14.2037 12.2589L16.4151 14.4697C16.4489 14.5035 16.4489 14.5587 16.4157 14.5919L15.8632 15.1446C14.9795 16.0272 14.9784 17.4577 15.8627 18.3412L18.0744 20.5534C18.957 21.436 20.3872 21.4371 21.2704 20.5537L21.8247 19.9999C21.8579 19.9667 21.9115 19.9669 21.9452 20.0004C24.2752 22.3429 24.1822 22.2055 24.1822 22.273C24.1822 22.3353 24.1741 22.3046 23.6039 22.8861Z" fill="white"/>
</svg>
