<svg width="36" height="37" viewBox="0 0 36 37" fill="none" xmlns="http://www.w3.org/2000/svg">
<path d="M26.4436 6.53839H9.73166C7.81185 6.53839 6.25 8.10024 6.25 10.02V26.732C6.25 28.6518 7.81185 30.2137 9.73166 30.2137H26.4436C28.3634 30.2137 29.9253 28.6518 29.9253 26.732V10.02C29.9253 8.10024 28.3634 6.53839 26.4436 6.53839ZM28.5326 26.732C28.5326 27.8839 27.5956 28.821 26.4436 28.821H9.73166C8.57972 28.821 7.64266 27.8839 7.64266 26.732V10.02C7.64266 8.86811 8.57972 7.93105 9.73166 7.93105H26.4436C27.5956 7.93105 28.5326 8.86811 28.5326 10.02V26.732Z" fill="white"/>
<path d="M18.0873 12.109C14.6318 12.109 11.8203 14.9205 11.8203 18.376C11.8203 21.8316 14.6318 24.643 18.0873 24.643C21.5428 24.643 24.3543 21.8316 24.3543 18.376C24.3543 14.9205 21.5428 12.109 18.0873 12.109ZM18.0873 23.2503C15.3996 23.2503 13.213 21.0637 13.213 18.376C13.213 15.6883 15.3996 13.5017 18.0873 13.5017C20.775 13.5017 22.9616 15.6883 22.9616 18.376C22.9616 21.0637 20.775 23.2503 18.0873 23.2503Z" fill="white"/>
<path d="M25.0519 9.32372C23.8999 9.32372 22.9629 10.2608 22.9629 11.4127C22.9629 12.5646 23.8999 13.5017 25.0519 13.5017C26.2038 13.5017 27.1409 12.5646 27.1409 11.4127C27.1409 10.2608 26.2038 9.32372 25.0519 9.32372ZM25.0519 12.109C24.6678 12.109 24.3556 11.7968 24.3556 11.4127C24.3556 11.0286 24.6678 10.7164 25.0519 10.7164C25.436 10.7164 25.7482 11.0286 25.7482 11.4127C25.7482 11.7968 25.436 12.109 25.0519 12.109Z" fill="white"/>
</svg>
