<svg width="36" height="37" viewBox="0 0 36 37" fill="none" xmlns="http://www.w3.org/2000/svg">
<path d="M28.8044 12.0086C28.7266 12.0122 28.6515 12.0141 28.5756 12.0152L28.998 10.8646C29.1999 10.3151 28.6716 9.77494 28.1175 9.96616C27.1419 10.3024 26.7132 10.5145 26.0092 10.6973C24.1686 9.04297 21.4515 8.97117 19.5108 10.1642C17.9179 11.1434 17.051 12.8353 17.3418 14.8277C14.2233 14.4001 11.6727 12.953 9.56603 10.4226C9.41833 10.2452 9.19257 10.1525 8.96299 10.1751C8.73342 10.1976 8.52996 10.3323 8.41953 10.5349C7.54395 12.1416 7.48955 14.0688 8.39097 15.7052C8.03736 15.7169 7.74469 15.9935 7.71939 16.352C7.63452 17.5524 8.17826 19.254 9.52713 20.4223C9.29946 20.6023 9.20562 20.907 9.29783 21.1863C9.76459 22.6029 10.7337 23.6983 11.9918 24.3076C10.7348 24.8407 9.72053 25.181 8.05287 25.7294C7.78929 25.8159 7.60243 26.0509 7.57713 26.3272C7.55183 26.6036 7.693 26.8688 7.93645 27.0018C8.47393 27.2956 10.3725 28.2767 12.2494 28.571C16.402 29.2224 21.0528 28.6986 24.1895 25.8735C26.8519 23.4761 27.7212 20.051 27.5393 16.4866C27.5121 15.9484 27.6592 15.4354 27.9541 15.042C28.0835 14.8693 27.4517 15.7117 29.3976 13.1149C29.7411 12.6446 29.3881 11.9844 28.8044 12.0086ZM26.8394 14.2073C26.3503 14.8601 26.1047 15.6943 26.1482 16.5574C26.3327 20.159 25.36 22.9454 23.2576 24.8388C20.824 27.0304 16.89 27.8891 12.4651 27.1949C11.6583 27.0684 10.8243 26.7853 10.134 26.5024C11.5315 26.0215 12.6117 25.5925 14.3563 24.7667C15.0039 24.4602 14.8179 23.488 14.1028 23.4426C12.8148 23.3602 11.7426 22.7362 11.0835 21.723C11.4333 21.7026 11.7709 21.6458 12.1068 21.5522C12.7942 21.3604 12.78 20.375 12.0856 20.205C10.4171 19.7964 9.51625 18.5569 9.21677 17.443C9.4779 17.5137 9.78091 17.5635 10.2735 17.6122C10.9669 17.6802 11.3177 16.7973 10.7702 16.3702C9.40418 15.3045 8.85664 13.704 9.25785 12.1656C11.6648 14.6656 14.6517 16.0591 18.1527 16.3118C18.6379 16.3452 19.0484 15.9157 18.8408 15.1895C18.1929 12.8992 19.6033 11.7418 20.2398 11.3507C21.5579 10.5404 23.655 10.4226 25.1111 11.7627C25.4263 12.0557 25.8553 12.1708 26.2573 12.0712C26.6052 11.9847 26.8927 11.8933 27.1729 11.7943L26.9267 12.4642C26.7782 12.8687 27.0293 13.3099 27.4525 13.3891C27.2904 13.6053 27.0894 13.8735 26.8394 14.2073Z" fill="white"/>
</svg>
