<svg width="12" height="12" viewBox="0 0 12 12" fill="none" xmlns="http://www.w3.org/2000/svg">
<g clip-path="url(#clip0_403_189)">
<path d="M8.84388 5.25075L4.24077 0.654492C4.07125 0.475626 3.85957 0.38623 3.6053 0.38623C3.35104 0.38623 3.13935 0.475725 2.96984 0.654492L2.43326 1.18409C2.25907 1.35826 2.17197 1.56997 2.17197 1.81943C2.17197 2.06418 2.25905 2.27841 2.43326 2.46192L5.86451 5.88624L2.43311 9.31761C2.25897 9.49178 2.17188 9.70348 2.17188 9.95298C2.17188 10.1977 2.25895 10.412 2.43311 10.5954L2.96974 11.125C3.1439 11.2991 3.35581 11.3862 3.6052 11.3862C3.85469 11.3862 4.06655 11.2991 4.24067 11.125L8.84388 6.52871C9.01812 6.34514 9.10529 6.13096 9.10529 5.88622C9.10531 5.63675 9.01812 5.42492 8.84388 5.25075Z" fill="#E75B7E"/>
</g>
<defs>
<clipPath id="clip0_403_189">
<rect width="11" height="11" fill="white" transform="translate(0.138672 0.38623)"/>
</clipPath>
</defs>
</svg>
